<?xml version="1.0" encoding="utf-8"?>
<!-- Generator: Adobe Illustrator 25.4.1, SVG Export Plug-In . SVG Version: 6.00 Build 0)  -->
<svg version="1.1" id="Layer_1" xmlns="http://www.w3.org/2000/svg" xmlns:xlink="http://www.w3.org/1999/xlink" x="0px" y="0px"
	 viewBox="0 0 1208.35 295.04" style="enable-background:new 0 0 1208.35 295.04;" xml:space="preserve">
<g>
	<path style="fill:#0966B4;" d="M65.3,188.28v25.52c0,1.28,1.04,2.32,2.32,2.32h134.54c1.28,0,2.32-1.04,2.32-2.32v-25.52
		c0-1.28-1.04-2.32-2.32-2.32c-6.41,0-11.6-5.19-11.6-11.6c0-6.41,5.19-11.6,11.6-11.6c1.28,0,2.32-1.04,2.32-2.32v-23.2
		c0-1.28-1.04-2.32-2.32-2.32h-5.1l-86.41-57.6c-1.07-0.71-2.51-0.42-3.22,0.64c0,0.01-0.01,0.01-0.01,0.02L93.78,98.86
		c-0.7,1.07-0.4,2.51,0.67,3.21c0.02,0.01,0.04,0.03,0.06,0.04c5.48,3.31,7.24,10.45,3.92,15.93s-10.45,7.24-15.93,3.92
		c-0.08-0.05-0.15-0.09-0.23-0.14c-1.08-0.69-2.51-0.37-3.2,0.71c-0.01,0.02-0.03,0.04-0.04,0.07l-7.27,12.32h-4.15
		c-1.28,0-2.32,1.04-2.32,2.32v23.2 M81.91,126.87c8.2,3.64,17.79-0.07,21.43-8.27c2.94-6.64,1.12-14.42-4.46-19.07l11.15-17.06
		l19.68,13.12l-3.71,5.56c-0.72,1.06-0.44,2.5,0.63,3.22c1.06,0.72,2.5,0.44,3.22-0.63c0-0.01,0.01-0.01,0.01-0.02l3.71-5.56
		l55.13,36.75h-31.26l-21.3-13.56c-1.08-0.69-2.51-0.37-3.2,0.71c-0.69,1.08-0.37,2.51,0.71,3.2l15.15,9.64H77.16L81.91,126.87z
		 M69.93,158.29v-18.72H172v6.96c0,1.28,1.04,2.32,2.32,2.32s2.32-1.04,2.32-2.32v-6.96h23.2v18.72
		c-8.88,1.28-15.03,9.52-13.75,18.39c1.03,7.13,6.63,12.72,13.75,13.75v21.04h-23.2v-6.96c0-1.28-1.04-2.32-2.32-2.32
		s-2.32,1.04-2.32,2.32v6.96H69.93v-21.04v-50.87"/>
	<path style="fill:#0966B4;" d="M174.32,153.48c-1.28,0-2.32,1.04-2.32,2.32v6.96c0,1.28,1.04,2.32,2.32,2.32s2.32-1.04,2.32-2.32
		v-6.96C176.64,154.52,175.6,153.48,174.32,153.48z"/>
	<path style="fill:#0966B4;" d="M174.32,169.72c-1.28,0-2.32,1.04-2.32,2.32V179c0,1.28,1.04,2.32,2.32,2.32s2.32-1.04,2.32-2.32
		v-6.96C176.64,170.76,175.6,169.72,174.32,169.72z"/>
	<path style="fill:#0966B4;" d="M174.32,185.96c-1.28,0-2.32,1.04-2.32,2.32v6.96c0,1.28,1.04,2.32,2.32,2.32s2.32-1.04,2.32-2.32
		v-6.96C176.64,187,175.6,185.96,174.32,185.96z"/>
	<path style="fill:#0966B4;" d="M158.08,148.84H90.81c-1.28,0-2.32,1.04-2.32,2.32v30.16c0,1.28,1.04,2.32,2.32,2.32h67.27
		c1.28,0,2.32-1.04,2.32-2.32v-30.16C160.4,149.88,159.37,148.84,158.08,148.84z M155.76,179H93.13v-25.52h62.63V179z"/>
	<path style="fill:#0966B4;" d="M158.08,188.28H90.81c-1.28,0-2.32,1.04-2.32,2.32s1.04,2.32,2.32,2.32h67.27
		c1.28,0,2.32-1.04,2.32-2.32S159.37,188.28,158.08,188.28z"/>
	<path style="fill:#0966B4;" d="M158.08,197.56H90.81c-1.28,0-2.32,1.04-2.32,2.32s1.04,2.32,2.32,2.32h67.27
		c1.28,0,2.32-1.04,2.32-2.32S159.37,197.56,158.08,197.56z"/>
	<path style="fill:#0966B4;" d="M124.58,107.48c-1.07-0.71-2.51-0.42-3.22,0.64l-4.64,6.96c-0.72,1.06-0.44,2.5,0.63,3.22
		c1.06,0.72,2.5,0.44,3.22-0.63c0-0.01,0.01-0.01,0.01-0.02l4.64-6.96C125.93,109.63,125.64,108.19,124.58,107.48L124.58,107.48z"/>
	<path style="fill:#0966B4;" d="M115.3,121.39c-1.07-0.71-2.51-0.42-3.22,0.64l-4.64,6.96c-0.72,1.06-0.44,2.5,0.63,3.22
		s2.5,0.44,3.22-0.63c0-0.01,0.01-0.01,0.01-0.02l4.64-6.96C116.65,123.55,116.36,122.11,115.3,121.39L115.3,121.39z"/>
	<path style="fill:#0966B4;" d="M138.28,116l25.52,16.24c1.08,0.69,2.51,0.37,3.2-0.71c0.69-1.08,0.37-2.51-0.71-3.2l-25.52-16.24
		c-1.08-0.69-2.51-0.37-3.2,0.71C136.88,113.88,137.2,115.32,138.28,116z"/>
</g>
<g>
	<path style="fill:#0966B4;" d="M358.98,104.49V213.6h-17.65v-10.15c-3.04,3.73-6.79,6.52-11.25,8.38
		c-4.46,1.86-9.39,2.79-14.78,2.79c-7.55,0-14.34-1.67-20.37-5c-6.03-3.33-10.76-8.06-14.19-14.19c-3.43-6.13-5.15-13.16-5.15-21.1
		s1.71-14.95,5.15-21.03c3.43-6.08,8.16-10.78,14.19-14.12c6.03-3.33,12.82-5,20.37-5c5.2,0,9.95,0.88,14.26,2.65
		c4.31,1.76,7.99,4.41,11.03,7.94v-40.29H358.98z M329.42,195.88c3.53-2.01,6.32-4.88,8.38-8.6c2.06-3.72,3.09-8.04,3.09-12.94
		c0-4.9-1.03-9.21-3.09-12.94c-2.06-3.73-4.85-6.59-8.38-8.6c-3.53-2.01-7.5-3.01-11.91-3.01c-4.41,0-8.38,1.01-11.91,3.01
		c-3.53,2.01-6.32,4.88-8.38,8.6c-2.06,3.73-3.09,8.04-3.09,12.94c0,4.9,1.03,9.22,3.09,12.94c2.06,3.73,4.85,6.59,8.38,8.6
		c3.53,2.01,7.5,3.01,11.91,3.01C321.92,198.9,325.89,197.89,329.42,195.88z"/>
	<path style="fill:#0966B4;" d="M391.33,118.97c-2.26-2.11-3.38-4.73-3.38-7.87c0-3.14,1.13-5.76,3.38-7.87
		c2.25-2.11,5.05-3.16,8.38-3.16c3.33,0,6.13,1.01,8.38,3.01c2.25,2.01,3.38,4.54,3.38,7.57c0,3.23-1.1,5.96-3.31,8.16
		c-2.21,2.21-5.03,3.31-8.46,3.31C396.38,122.14,393.59,121.08,391.33,118.97z M390.45,135.08h18.38v78.53h-18.38V135.08z"/>
	<path style="fill:#0966B4;" d="M518.24,135.08v66.62c0,27.65-14.12,41.47-42.35,41.47c-7.55,0-14.71-0.96-21.47-2.87
		s-12.35-4.68-16.76-8.31l8.24-13.82c3.43,2.84,7.77,5.12,13.01,6.84c5.24,1.71,10.56,2.57,15.96,2.57c8.63,0,14.95-1.96,18.97-5.88
		c4.02-3.92,6.03-9.9,6.03-17.94v-4.12c-3.14,3.43-6.96,6.03-11.47,7.79c-4.51,1.76-9.46,2.65-14.85,2.65
		c-7.45,0-14.19-1.59-20.22-4.78c-6.03-3.18-10.79-7.67-14.26-13.46c-3.48-5.78-5.22-12.4-5.22-19.85c0-7.45,1.74-14.04,5.22-19.78
		c3.48-5.74,8.24-10.17,14.26-13.31c6.03-3.14,12.77-4.71,20.22-4.71c5.68,0,10.86,0.93,15.51,2.79c4.66,1.86,8.55,4.71,11.69,8.53
		v-10.44H518.24z M493.46,188.24c4.46-4.17,6.69-9.58,6.69-16.25c0-6.57-2.23-11.91-6.69-16.03c-4.46-4.12-10.17-6.18-17.13-6.18
		c-7.06,0-12.82,2.06-17.28,6.18c-4.46,4.12-6.69,9.46-6.69,16.03c0,6.67,2.23,12.08,6.69,16.25c4.46,4.17,10.22,6.25,17.28,6.25
		C483.29,194.49,489,192.4,493.46,188.24z"/>
	<path style="fill:#0966B4;" d="M550.59,118.97c-2.26-2.11-3.38-4.73-3.38-7.87c0-3.14,1.13-5.76,3.38-7.87
		c2.25-2.11,5.05-3.16,8.38-3.16c3.33,0,6.13,1.01,8.38,3.01c2.25,2.01,3.38,4.54,3.38,7.57c0,3.23-1.1,5.96-3.31,8.16
		c-2.21,2.21-5.03,3.31-8.46,3.31C555.64,122.14,552.84,121.08,550.59,118.97z M549.71,135.08h18.38v78.53h-18.38V135.08z"/>
	<path style="fill:#0966B4;" d="M621.02,130.08h-32.94v-19.41h89.7v19.41h-32.94v83.53h-23.82V130.08z"/>
	<path style="fill:#0966B4;" d="M695.73,119.78c-2.65-2.45-3.97-5.49-3.97-9.12c0-3.63,1.32-6.67,3.97-9.12
		c2.65-2.45,6.08-3.68,10.29-3.68c4.21,0,7.65,1.18,10.29,3.53c2.65,2.35,3.97,5.29,3.97,8.82c0,3.82-1.32,6.99-3.97,9.48
		c-2.65,2.5-6.08,3.75-10.29,3.75C701.81,123.46,698.38,122.23,695.73,119.78z M694.55,134.49h22.94v79.12h-22.94V134.49z"/>
	<path style="fill:#0966B4;" d="M761.68,209.56c-6.72-3.48-11.96-8.31-15.74-14.48c-3.78-6.18-5.66-13.18-5.66-21.03
		c0-7.84,1.89-14.85,5.66-21.03c3.77-6.18,9.02-11,15.74-14.48c6.71-3.48,14.29-5.22,22.72-5.22c8.33,0,15.61,1.74,21.84,5.22
		c6.22,3.48,10.76,8.46,13.6,14.93l-17.79,9.56c-4.12-7.25-10.05-10.88-17.79-10.88c-5.98,0-10.93,1.96-14.85,5.88
		c-3.92,3.92-5.88,9.26-5.88,16.03s1.96,12.11,5.88,16.03c3.92,3.92,8.87,5.88,14.85,5.88c7.84,0,13.77-3.63,17.79-10.88l17.79,9.71
		c-2.84,6.27-7.38,11.18-13.6,14.71c-6.23,3.53-13.51,5.29-21.84,5.29C775.97,214.78,768.4,213.04,761.68,209.56z"/>
	<path style="fill:#0966B4;" d="M873.81,182.58l-11.03,10.88v20.15h-22.94V104.49h22.94v61.76l33.53-31.76h27.35l-32.94,33.53
		l35.88,45.59h-27.79L873.81,182.58z"/>
	<path style="fill:#0966B4;" d="M1017.92,180.52h-59.85c1.08,4.9,3.63,8.78,7.65,11.62c4.02,2.84,9.02,4.26,15,4.26
		c4.12,0,7.77-0.61,10.96-1.84c3.18-1.22,6.15-3.16,8.9-5.81l12.21,13.23c-7.45,8.53-18.33,12.79-32.65,12.79
		c-8.92,0-16.81-1.74-23.68-5.22c-6.86-3.48-12.16-8.31-15.88-14.48c-3.73-6.18-5.59-13.18-5.59-21.03c0-7.74,1.84-14.73,5.51-20.96
		c3.68-6.22,8.72-11.08,15.15-14.56c6.42-3.48,13.6-5.22,21.54-5.22c7.74,0,14.75,1.67,21.03,5c6.27,3.33,11.2,8.11,14.78,14.34
		c3.58,6.23,5.37,13.46,5.37,21.69C1018.36,174.63,1018.21,176.69,1017.92,180.52z M964.25,155.08c-3.53,2.94-5.69,6.96-6.47,12.06
		h38.97c-0.79-5-2.94-8.99-6.47-11.98c-3.53-2.99-7.84-4.49-12.94-4.49C972.14,150.66,967.78,152.13,964.25,155.08z"/>
	<path style="fill:#0966B4;" d="M1092.04,209.78c-2.26,1.67-5.03,2.92-8.31,3.75c-3.29,0.83-6.74,1.25-10.37,1.25
		c-9.41,0-16.69-2.4-21.84-7.21c-5.15-4.8-7.72-11.86-7.72-21.18v-32.5h-12.21v-17.65h12.21v-19.26h22.94v19.26h19.71v17.65h-19.71
		v32.21c0,3.33,0.86,5.91,2.57,7.72c1.71,1.81,4.14,2.72,7.28,2.72c3.63,0,6.71-0.98,9.26-2.94L1092.04,209.78z"/>
	<path style="fill:#0966B4;" d="M1119.68,212.35c-6.27-1.62-11.27-3.65-15-6.1l7.65-16.47c3.53,2.26,7.79,4.09,12.79,5.51
		c5,1.42,9.9,2.13,14.71,2.13c9.71,0,14.56-2.4,14.56-7.21c0-2.25-1.32-3.87-3.97-4.85c-2.65-0.98-6.72-1.81-12.21-2.5
		c-6.47-0.98-11.82-2.11-16.03-3.38c-4.22-1.27-7.87-3.53-10.96-6.76c-3.09-3.23-4.63-7.84-4.63-13.82c0-5,1.45-9.43,4.34-13.31
		c2.89-3.87,7.11-6.89,12.65-9.04c5.54-2.16,12.08-3.24,19.63-3.24c5.59,0,11.15,0.61,16.69,1.84c5.54,1.23,10.12,2.92,13.75,5.07
		l-7.65,16.32c-6.96-3.92-14.56-5.88-22.79-5.88c-4.9,0-8.58,0.69-11.03,2.06c-2.45,1.37-3.68,3.14-3.68,5.29
		c0,2.45,1.32,4.17,3.97,5.15c2.65,0.98,6.86,1.91,12.65,2.79c6.47,1.08,11.76,2.23,15.88,3.46c4.12,1.23,7.7,3.46,10.74,6.69
		c3.04,3.24,4.56,7.75,4.56,13.53c0,4.9-1.47,9.26-4.41,13.09c-2.94,3.82-7.23,6.79-12.87,8.9c-5.64,2.11-12.33,3.16-20.07,3.16
		C1132.38,214.78,1125.96,213.97,1119.68,212.35z"/>
</g>
</svg>
