<svg width="1209" height="296" viewBox="0 0 1209 296" fill="none" xmlns="http://www.w3.org/2000/svg">
<path d="M139.564 136.029C139.564 136.029 123.174 137.668 95.3608 139.307C67.4976 140.946 49.9651 143.727 45.7434 157.088C44.303 161.657 43.2104 167.17 42.366 172.385C40.727 182.517 46.6374 191.706 46.6374 191.706C46.6374 191.706 66.4545 192.55 93.2251 193.394C95.1124 207.848 107.48 218.973 122.429 218.973C136.882 218.973 148.902 208.593 151.435 194.835C170.606 195.133 195.043 195.282 209.794 194.934V136.228C200.407 136.575 186.848 137.022 175.623 137.022C156.302 137.022 153.173 134.191 174.083 119.887C189.232 109.457 203.238 104.987 209.794 103.298V97.984C206.963 97.984 187.791 101.51 171.451 111.344C155.011 121.079 139.564 136.029 139.564 136.029ZM79.815 156.541L51.5048 156.988C51.5048 156.988 55.0311 151.376 62.2825 148.545C69.5339 145.714 80.5103 146.658 80.5103 146.658L79.815 156.541ZM142.346 194.735C140.061 203.576 132.015 210.132 122.429 210.132C112.496 210.132 104.202 203.08 102.264 193.692C101.966 192.351 101.817 190.961 101.817 189.52C101.817 178.147 111.056 168.909 122.429 168.909C133.803 168.909 143.041 178.147 143.041 189.52C142.991 191.358 142.743 193.096 142.346 194.735Z" fill="#0966B4"/>
<path d="M122.38 205.314C131.075 205.314 138.124 198.265 138.124 189.57C138.124 180.875 131.075 173.826 122.38 173.826C113.684 173.826 106.635 180.875 106.635 189.57C106.635 198.265 113.684 205.314 122.38 205.314Z" fill="#0ABE7F"/>
<path d="M293.731 187.583C284.245 194.09 271.778 197.467 260.653 197.467C236.664 197.467 224.594 187.832 224.594 163.842V157.882C224.594 133.893 235.422 124.009 255.636 124.009C260.504 124.009 265.421 124.953 268.947 126.741V96.8912H293.781V187.583H293.731ZM249.428 164.438C249.428 173.13 252.16 178.147 261.1 178.147C263.831 178.147 266.513 177.6 268.947 176.806V145.764C266.364 144.125 263.682 143.479 259.858 143.479C252.011 143.479 249.428 148.495 249.428 157.187V164.438Z" fill="#0966B4"/>
<path d="M311.363 108.166V105.037C311.363 99.2256 316.23 96.8912 324.773 96.8912C333.316 96.8912 338.332 99.1759 338.332 105.037V108.166C338.332 113.977 333.316 116.311 324.773 116.311C316.28 116.311 311.363 113.977 311.363 108.166ZM312.456 125.648H337.289V195.878H312.456V125.648Z" fill="#0966B4"/>
<path d="M422.418 196.424C422.418 216.092 412.634 226.373 389.489 226.373C380.003 226.373 369.175 225.032 361.03 221.605V201.391C368.877 205.165 377.569 206.953 385.317 206.953C393.065 206.953 397.784 203.179 397.784 195.977V194.735C394.257 196.474 389.241 197.467 384.373 197.467C364.159 197.467 353.332 187.583 353.332 163.594V157.634C353.332 133.645 365.401 124.009 389.39 124.009C400.515 124.009 412.982 127.387 422.468 133.893V196.424H422.418ZM378.066 164.438C378.066 173.13 380.648 178.147 388.496 178.147C392.271 178.147 395.151 177.451 397.734 175.862V144.82C395.3 144.025 392.469 143.479 389.737 143.479C380.797 143.479 378.066 148.495 378.066 157.187V164.438Z" fill="#0966B4"/>
<path d="M440.05 108.166V105.037C440.05 99.2256 444.918 96.8912 453.46 96.8912C462.003 96.8912 467.019 99.1759 467.019 105.037V108.166C467.019 113.977 462.003 116.311 453.46 116.311C444.918 116.311 440.05 113.977 440.05 108.166ZM441.143 125.648H465.976V195.878H441.143V125.648Z" fill="#0966B4"/>
<path d="M473.824 122.271V100.964H552.993V122.271H527.762V195.878H498.906V122.271H473.824Z" fill="#0ABE7F"/>
<path d="M621.335 148.446C613.488 145.068 605.591 143.678 595.309 143.678C592.727 143.678 589.051 144.373 587.313 145.168V195.878H562.48V133.645C571.42 127.933 582.793 124.009 596.352 124.009C605.839 124.009 613.984 125.251 621.285 128.082V148.446H621.335Z" fill="#0ABE7F"/>
<path d="M624.712 172.832C624.712 156.988 634.894 151.674 654.264 151.674C659.032 151.674 664.297 152.369 668.37 153.561C668.37 146.509 665.39 143.38 656.052 143.38C647.51 143.38 639.116 145.118 631.517 148.644V129.125C639.91 125.748 649.298 123.96 660.522 123.96C681.531 123.96 693.203 132.503 693.203 152.816V188.08C683.717 194.04 670.952 197.417 658.089 197.417C634.497 197.517 624.712 189.371 624.712 172.832ZM668.37 177.998V167.568C665.241 166.624 661.714 166.227 658.486 166.227C651.582 166.227 649.546 168.958 649.546 172.882C649.546 176.955 651.98 179.537 658.486 179.537C662.012 179.488 665.39 179.041 668.37 177.998Z" fill="#0ABE7F"/>
<path d="M732.937 195.878H708.103V133.645C716.795 127.834 729.262 124.009 742.423 124.009C767.505 124.009 775.899 133.893 775.899 154.257V195.878H751.065V154.803C751.065 146.807 748.085 143.429 740.884 143.429C738.053 143.429 735.619 143.827 732.887 144.77V195.878H732.937Z" fill="#0ABE7F"/>
<path d="M832.023 154.108C847.469 158.975 853.032 164.538 853.032 175.961C853.032 190.464 842.055 197.517 820.5 197.517C810.865 197.517 800.434 195.629 790.799 191.01V170.697C800.434 175.564 809.921 178.147 818.861 178.147C825.765 178.147 828.198 176.905 828.198 174.471C828.198 172.584 827.404 171.889 825.367 171.193L810.318 166.425C795.418 161.657 789.458 155.995 789.458 144.572C789.458 130.466 800.583 123.96 821.344 123.96C830.831 123.96 839.771 125.301 848.463 128.728V148.644C840.317 145.118 831.774 143.38 823.083 143.38C816.03 143.38 814.143 144.323 814.143 146.211C814.143 147.85 814.689 148.495 817.123 149.34L832.023 154.108Z" fill="#0ABE7F"/>
<path d="M866.641 133.893C876.127 127.387 888.593 124.009 899.719 124.009C923.708 124.009 935.777 133.645 935.777 157.634V163.594C935.777 187.583 924.95 197.467 904.735 197.467C899.868 197.467 894.951 196.523 891.425 194.735V224.635H866.591V133.893H866.641ZM910.944 157.088C910.944 148.396 908.212 143.38 899.272 143.38C896.54 143.38 893.858 143.926 891.425 144.721V175.762C894.007 177.402 896.689 178.047 900.514 178.047C908.361 178.047 910.944 173.031 910.944 164.339V157.088Z" fill="#0ABE7F"/>
<path d="M946.605 157.932C946.605 136.625 957.978 124.059 982.812 124.059C1007.65 124.059 1019.17 136.675 1019.17 157.932V163.644C1019.17 184.951 1007.65 197.517 982.812 197.517C957.978 197.517 946.605 184.901 946.605 163.644V157.932ZM994.335 157.386C994.335 147.899 990.262 143.429 982.663 143.429C975.213 143.429 971.289 147.899 971.289 157.386V164.14C971.289 173.627 975.362 178.097 982.961 178.097C990.411 178.097 994.335 173.627 994.335 164.14V157.386Z" fill="#0ABE7F"/>
<path d="M1091.58 148.446C1083.74 145.068 1075.84 143.678 1065.56 143.678C1062.97 143.678 1059.3 144.373 1057.56 145.168V195.878H1032.73V133.645C1041.67 127.933 1053.04 124.009 1066.6 124.009C1076.09 124.009 1084.23 125.251 1091.53 128.082V148.446H1091.58Z" fill="#0ABE7F"/>
<path d="M1107.67 125.648V104.639H1132.51V125.648H1150.29V145.019H1132.51V171.988C1132.51 176.458 1134.15 178.246 1137.52 178.246C1141.45 178.246 1145.52 177.7 1150.29 176.061V193.692C1145.12 196.275 1137.67 197.467 1130.47 197.467C1114.33 197.467 1107.67 188.676 1107.67 174.024V145.019H1096.95V125.648H1107.67Z" fill="#0ABE7F"/>
</svg>
