<svg width="1209" height="296" viewBox="0 0 1209 296" fill="none" xmlns="http://www.w3.org/2000/svg">
<path d="M1027.6 102.435C1037.08 102.322 1046.68 102.322 1056.28 102.435C1059.21 102.435 1060.11 101.531 1060.11 98.5961C1059.89 90.806 1060 82.903 1060 75C1047.92 75 1035.95 75 1023.87 75C1023.87 82.903 1023.99 90.6931 1023.76 98.5961C1023.65 101.531 1024.55 102.435 1027.6 102.435Z" fill="#0ABE7F"/>
<path d="M794.349 142.514C793.559 122.644 781.705 112.483 761.721 112.37C747.383 112.257 735.754 116.547 730.109 131.789C725.368 118.128 715.432 113.273 702.9 112.483C688.111 111.58 675.014 114.402 668.692 130.885C664.853 125.353 665.869 117.337 660.676 115.079C655.708 112.934 649.273 114.515 643.402 114.515C641.37 114.515 639.225 114.741 637.193 114.515C634.145 114.176 633.241 115.418 633.467 118.354C633.693 122.079 633.467 125.918 633.467 129.644C633.467 156.852 633.467 184.174 633.467 211.383C633.467 213.641 632.564 216.351 636.741 216.238C646.902 216.012 657.063 216.125 667.224 216.238C669.708 216.238 670.611 215.335 670.385 212.964C670.272 211.609 670.385 210.367 670.385 209.012C670.385 190.835 670.272 172.546 670.498 154.369C670.611 145.111 674.337 141.724 683.256 141.837C691.498 141.95 695.449 145.562 695.562 153.804C695.788 173.11 695.788 192.529 695.562 211.835C695.562 215.222 696.352 216.351 699.965 216.351C708.997 216.125 718.029 215.899 727.061 216.351C732.029 216.576 732.819 214.77 732.819 210.367C732.593 191.738 732.593 173.223 732.819 154.594C732.932 145.788 736.432 142.063 744.335 141.837C753.593 141.611 757.544 144.998 758.109 154.143C758.221 156.175 758.221 158.32 758.221 160.352C758.221 177.4 758.221 194.561 758.221 211.609C758.221 213.98 757.657 216.464 761.721 216.351C771.657 216.125 781.705 216.238 791.64 216.351C794.011 216.351 795.027 215.786 794.914 213.189C794.688 189.368 795.253 165.884 794.349 142.514Z" fill="#0ABE7F"/>
<path d="M982.103 142.514C987.522 142.74 993.054 142.401 998.473 142.627C1002.09 142.853 1003.55 141.837 1003.33 137.998C1002.99 132.014 1002.99 126.031 1003.33 119.934C1003.44 116.321 1002.09 115.418 998.812 115.644C993.167 115.87 987.522 115.531 981.877 115.757C978.716 115.87 977.587 114.854 977.699 111.58C977.925 103.677 977.812 95.7736 977.812 87.8706C977.812 85.7255 978.264 83.8062 974.651 84.8223C964.716 87.6448 954.668 90.1286 944.733 92.6124C942.023 93.2898 941.684 94.7575 941.684 97.0155C941.797 101.87 941.571 106.838 941.797 111.692C942.023 114.967 940.668 115.757 937.62 115.757C933.443 115.757 927.572 113.725 925.314 116.773C923.169 119.595 924.524 125.015 924.637 129.305C924.749 133.595 922.717 138.901 925.54 141.724C928.136 144.208 933.443 142.627 937.507 142.401C941.233 142.288 941.91 143.756 941.797 147.03C941.571 153.353 941.684 159.788 941.684 167.804C942.023 174.691 941.233 183.158 942.475 191.513C944.62 205.399 952.184 213.302 965.845 216.125C974.2 217.818 982.667 217.48 991.135 217.028C1003.33 216.464 1003.33 216.238 1003.33 204.383C1003.33 203.254 1003.33 202.125 1003.33 200.996C1003.33 190.045 1003.33 190.045 992.264 190.609C981.877 191.174 978.151 187.9 977.925 177.4C977.699 167.239 978.038 157.078 977.812 147.03C977.587 143.643 978.603 142.288 982.103 142.514Z" fill="#0ABE7F"/>
<path d="M1133.39 141.272C1140.61 140.03 1147.61 141.385 1154.61 142.853C1155.52 144.095 1156.87 143.643 1158.11 143.756C1158.11 134.385 1158.11 125.015 1158.11 115.531C1157.66 115.644 1157.21 115.757 1156.64 115.87C1147.5 113.612 1138.13 112.934 1128.76 113.386C1103.81 114.515 1086.99 127.724 1081.79 150.191C1080.1 157.53 1079.76 165.094 1080.44 172.545C1082.13 190.497 1089.36 205.174 1106.86 212.512C1123.11 219.399 1140.05 219.286 1156.98 214.657C1157.32 214.657 1157.77 214.657 1158.11 214.657C1158.11 205.625 1158.11 196.593 1158.11 187.561C1157.66 187.561 1157.21 187.674 1156.87 187.674C1149.87 189.142 1142.87 190.497 1135.65 189.932C1127.18 189.142 1121.98 185.077 1119.84 177.061C1117.81 169.271 1117.81 161.368 1119.84 153.691C1121.65 146.917 1126.05 142.627 1133.39 141.272Z" fill="#0ABE7F"/>
<path d="M1060 117.902C1060 114.628 1058.99 113.725 1055.82 113.725C1046.79 113.951 1037.76 113.951 1028.73 113.725C1024.89 113.612 1023.65 114.628 1023.65 118.692C1023.87 133.934 1023.76 149.062 1023.76 164.304C1023.76 179.884 1023.87 195.464 1023.65 211.044C1023.65 214.77 1024.78 215.786 1028.39 215.786C1037.42 215.56 1046.45 215.56 1055.49 215.786C1058.87 215.899 1060 214.883 1060 211.383C1059.89 180.223 1059.89 149.062 1060 117.902Z" fill="#0ABE7F"/>
<path d="M909.734 147.143C909.282 129.756 900.025 119.257 883.09 115.644C864.235 111.579 845.381 113.047 826.527 116.773C823.704 117.337 822.801 118.466 822.914 121.289C823.14 127.16 823.253 132.918 822.914 138.788C822.575 143.417 824.269 143.53 827.995 142.288C838.494 138.788 849.22 137.546 860.171 138.224C864.01 138.45 867.622 139.24 870.784 141.611C873.945 143.982 874.961 147.82 874.283 151.207C873.606 154.707 869.88 152.901 867.622 152.901C855.203 153.127 842.784 153.465 831.156 158.546C817.721 164.417 811.624 175.368 812.979 190.835C814.221 204.27 822.575 213.754 836.123 217.367C838.155 217.931 840.639 217.367 842.22 219.399C845.268 219.399 848.204 219.399 851.252 219.399C851.591 219.06 851.929 218.383 852.381 218.383C863.445 217.141 872.025 212.286 876.428 201.561C880.154 206.077 878.122 213.98 883.767 215.899C888.847 217.592 894.944 216.238 900.589 216.351C902.508 216.351 904.315 216.238 906.234 216.351C909.169 216.576 910.186 215.56 910.186 212.625C909.847 190.722 910.298 168.933 909.734 147.143ZM874.396 177.174C873.493 188.238 867.961 193.432 857.913 192.303C853.284 191.851 850.123 189.48 849.333 184.851C848.542 180.223 850.574 176.723 854.752 174.803C859.381 172.658 864.574 172.545 870.784 171.981C874.17 171.191 874.735 173.561 874.396 177.174Z" fill="#0ABE7F"/>
<path d="M398.635 114.515C389.603 114.628 380.571 114.854 371.539 114.402C366.91 114.176 365.556 115.418 365.669 120.16C366.007 138.337 365.894 156.627 365.781 174.803C365.781 183.271 362.733 187.448 356.298 188.69C346.024 190.722 339.814 185.868 339.702 175.368C339.476 156.627 339.589 137.772 339.702 119.031C339.702 116.434 339.927 114.289 336.089 114.402C326.154 114.628 316.105 114.515 306.17 114.402C303.461 114.402 302.67 115.305 302.67 117.902C302.783 141.046 302.67 164.078 302.896 187.222C303.009 193.206 304.025 199.077 307.525 204.383C315.541 216.463 327.508 218.834 340.605 218.044C352.911 217.254 362.733 212.286 367.588 198.738C369.507 204.044 371.201 208.448 372.781 212.851C373.572 215.109 374.701 216.125 377.184 216.012C384.297 215.786 391.523 215.786 398.635 216.012C401.571 216.125 402.587 215.222 402.587 212.286C402.474 180.9 402.474 149.514 402.587 118.241C402.587 115.192 401.571 114.402 398.635 114.515Z" fill="#0966B4"/>
<path d="M475.295 142.514C480.94 142.74 486.585 142.401 492.23 142.627C495.165 142.74 496.746 142.062 496.633 138.675C496.407 132.353 496.407 125.918 496.633 119.483C496.746 116.434 495.617 115.531 492.681 115.644C487.036 115.87 481.391 115.531 475.747 115.757C472.134 115.983 470.779 114.967 471.005 111.128C471.343 103.451 471.005 95.7736 471.118 87.9835C471.118 85.161 470.892 83.9191 467.392 84.9352C457.795 87.6448 448.199 90.1286 438.49 92.3866C435.441 93.064 434.764 94.7575 434.877 97.58C435.103 102.096 434.651 106.612 434.99 111.128C435.215 114.854 433.974 115.87 430.248 115.757C417.716 115.757 417.603 115.87 417.716 128.627C417.716 133.03 415.797 138.675 418.619 141.611C421.216 144.32 426.861 142.401 431.151 142.401C434.199 142.401 434.99 143.417 434.99 146.24C434.764 152.788 434.877 159.336 434.877 167.126C435.103 174.578 434.312 183.271 435.667 191.851C437.812 205.399 445.376 213.189 458.924 215.899C467.505 217.592 476.198 217.367 484.778 216.802C496.407 216.125 496.407 216.012 496.407 204.27C496.407 203.141 496.407 202.012 496.407 200.883C496.407 189.932 496.407 189.932 485.456 190.497C474.956 191.061 471.231 187.9 471.005 177.4C470.779 167.126 471.118 156.739 470.892 146.353C470.892 143.079 472.36 142.401 475.295 142.514Z" fill="#0966B4"/>
<path d="M141.11 160.239C156.013 151.433 160.981 137.434 160.303 120.95C159.626 104.58 151.949 92.4995 136.707 85.6126C127.901 81.6611 118.53 80.8708 109.16 80.7579C89.402 80.5321 69.6446 80.645 50 80.645C50 125.692 50 170.852 50 215.899C60.7255 215.899 71.451 215.786 82.1765 216.012C85.4506 216.125 86.2409 214.996 86.2409 211.835C86.0151 200.77 86.128 189.706 86.128 178.642C86.128 169.271 86.1279 169.61 95.4986 169.159C100.353 168.933 102.837 170.626 104.869 174.916C109.272 184.626 115.03 193.884 118.643 203.819C122.369 213.867 128.127 217.367 138.626 216.125C147.32 215.109 156.352 215.899 166.061 215.899C156.69 199.19 147.997 183.497 138.965 168.03C136.481 164.078 137.159 162.61 141.11 160.239ZM111.756 140.934C103.966 142.627 96.0631 141.498 88.1601 141.724C85.9021 141.837 86.015 140.256 86.015 138.676C86.015 133.934 86.015 129.305 86.015 124.563C86.015 120.273 86.1279 115.983 86.015 111.58C85.9021 109.209 86.3537 107.628 89.2891 107.854C96.4018 108.193 103.515 107.402 110.627 108.644C118.53 110.112 122.933 115.192 123.272 123.434C123.724 133.256 119.998 139.24 111.756 140.934Z" fill="#0966B4"/>
<path d="M248.477 113.499C237.413 110.564 226.236 110.451 214.946 112.257C194.06 115.418 180.173 128.176 175.544 148.724C173.851 156.514 173.625 164.417 174.189 172.207C175.883 196.255 188.189 211.383 210.317 216.577C214.269 217.48 218.446 217.818 222.511 218.383C222.511 218.722 222.511 219.06 222.511 219.286C226.236 219.286 230.075 219.286 233.8 219.286C233.8 218.947 233.8 218.609 233.8 218.383C234.929 218.27 236.058 218.157 237.187 218.044C262.59 215.335 278.057 201.448 281.896 177.287C283.476 167.578 283.251 157.869 281.218 148.159C277.606 129.869 266.541 118.354 248.477 113.499ZM241.929 184.626C239.22 191.061 235.381 193.884 228.607 193.884C221.833 193.884 217.43 191.287 215.285 184.739C210.995 171.755 210.882 158.546 214.946 145.563C217.091 138.676 221.607 135.853 228.381 135.853C235.494 135.853 239.558 138.901 242.042 146.014C244.526 153.014 244.526 160.352 244.752 167.126C244.187 173.336 244.187 179.094 241.929 184.626Z" fill="#0966B4"/>
<path d="M612.016 150.191C610.209 132.015 598.468 118.015 580.742 113.16C573.178 111.128 565.501 110.789 557.824 111.354C534.566 112.935 518.986 126.257 514.019 148.837C512.438 156.175 512.099 163.739 512.664 171.191C514.357 195.126 527.679 210.819 551.05 215.335C568.436 218.722 585.823 216.915 603.097 213.528C605.58 213.077 606.371 211.722 606.258 209.238C606.145 204.045 606.258 198.738 606.258 193.432C606.258 186.658 606.258 186.771 599.822 188.352C588.081 191.061 576.339 193.771 564.259 191.174C557.485 189.706 552.066 186.319 550.034 179.094C549.13 176.045 549.695 174.239 553.646 174.352C562.791 174.578 572.049 174.465 581.307 174.465C590.565 174.465 599.71 174.352 608.967 174.578C612.129 174.691 613.257 173.788 613.145 170.513C612.806 163.627 612.693 156.965 612.016 150.191ZM576.791 151.546C576.565 153.691 575.662 154.03 573.968 154.03C570.356 154.03 566.856 154.03 563.243 154.03C560.759 154.03 558.388 154.03 555.904 154.03C548.001 154.03 547.889 153.917 549.921 146.353C552.066 138.111 558.388 133.708 566.178 135.176C572.839 136.305 577.468 143.643 576.791 151.546Z" fill="#0966B4"/>
</svg>
